<?xml version="1.0" standalone="no"?>
<!DOCTYPE svg PUBLIC "-//W3C//DTD SVG 20010904//EN"
 "http://www.w3.org/TR/2001/REC-SVG-20010904/DTD/svg10.dtd">
<svg version="1.0" xmlns="http://www.w3.org/2000/svg"
 width="16.000000pt" height="16.000000pt" viewBox="0 0 16.000000 16.000000"
 preserveAspectRatio="xMidYMid meet">
<metadata>
Created by potrace 1.11, written by Peter Selinger 2001-2013
</metadata>
<g transform="translate(0.000000,16.000000) scale(0.000800,-0.000800)"
fill="#000000" stroke="none">
<path d="M9628 19845 c-1 -2 -68 -6 -148 -10 -80 -3 -167 -8 -195 -10 -111 -9
-201 -16 -225 -20 -14 -2 -61 -6 -104 -10 -43 -4 -87 -8 -97 -10 -10 -2 -44
-6 -76 -10 -62 -7 -113 -13 -153 -20 -14 -2 -45 -7 -70 -10 -36 -5 -272 -43
-365 -59 -15 -3 -229 -47 -345 -71 -461 -97 -1113 -302 -1600 -505 -220 -91
-537 -234 -630 -284 -14 -8 -83 -44 -155 -81 -309 -160 -591 -326 -905 -533
-113 -75 -207 -138 -210 -142 -3 -3 -34 -26 -70 -51 -35 -24 -71 -50 -80 -56
-8 -7 -29 -23 -46 -35 -18 -13 -76 -57 -129 -98 -54 -41 -110 -84 -125 -95
-31 -23 -81 -64 -224 -184 -408 -342 -823 -752 -1150 -1136 -37 -44 -78 -91
-90 -105 -12 -14 -67 -81 -122 -150 -564 -704 -1026 -1476 -1373 -2290 -132
-309 -182 -441 -285 -750 -90 -273 -113 -346 -170 -562 -41 -155 -109 -437
-120 -501 -3 -15 -7 -35 -10 -45 -3 -9 -7 -28 -10 -42 -2 -14 -16 -88 -30
-165 -14 -77 -28 -153 -30 -170 -3 -16 -14 -86 -25 -155 -11 -69 -23 -150 -26
-180 -4 -30 -8 -66 -10 -80 -4 -31 -17 -144 -21 -185 -1 -16 -5 -52 -8 -80 -5
-47 -13 -145 -21 -245 -27 -362 -27 -1073 0 -1420 2 -25 6 -81 10 -125 3 -44
7 -93 9 -110 2 -16 7 -59 10 -95 4 -36 9 -81 11 -100 3 -19 7 -55 10 -80 7
-65 15 -121 20 -150 2 -14 7 -45 10 -70 8 -66 53 -334 70 -415 8 -38 17 -86
20 -105 3 -19 8 -43 11 -52 3 -9 6 -25 8 -35 15 -74 36 -173 41 -184 2 -8 6
-25 9 -39 7 -37 102 -405 125 -480 93 -312 162 -516 263 -779 69 -181 158
-393 241 -576 60 -132 296 -596 356 -698 28 -49 51 -90 51 -92 0 -8 223 -370
296 -480 43 -66 81 -124 83 -130 2 -5 9 -15 15 -21 6 -7 31 -42 56 -79 38 -55
126 -178 215 -300 24 -32 219 -281 243 -310 9 -11 51 -61 92 -110 41 -50 77
-92 80 -95 3 -3 20 -23 39 -45 323 -379 786 -825 1236 -1194 324 -264 773
-577 1165 -811 274 -163 609 -339 960 -503 338 -157 985 -396 1320 -487 63
-17 122 -34 130 -37 8 -3 20 -7 25 -8 6 -2 64 -17 130 -33 220 -56 250 -63
273 -68 13 -3 99 -20 190 -39 140 -30 304 -60 437 -81 17 -2 41 -6 55 -9 14
-2 45 -7 70 -10 25 -3 56 -8 70 -10 23 -4 67 -10 150 -20 19 -2 53 -6 75 -9
22 -3 69 -8 105 -12 36 -3 79 -8 95 -10 70 -7 233 -19 420 -31 259 -15 987 -9
1240 12 135 11 194 16 235 21 25 2 68 7 95 9 65 6 143 15 179 21 15 3 51 7 79
9 27 3 75 9 106 15 31 5 130 21 221 36 187 30 195 31 218 38 9 3 34 7 54 10
21 3 59 11 85 17 27 6 59 13 73 15 251 48 969 245 1105 304 11 5 31 12 45 16
115 31 654 246 885 352 127 59 489 240 575 287 36 20 115 64 175 97 212 118
565 341 795 502 36 25 73 51 84 58 68 47 378 284 488 374 460 375 878 782
1252 1219 43 50 88 101 100 115 23 27 246 305 283 355 102 136 317 439 363
510 172 268 329 525 382 625 10 19 36 67 58 105 53 94 299 589 345 695 101
232 133 309 197 475 146 377 307 891 383 1225 59 254 114 526 139 685 3 17 14
86 25 155 11 69 23 152 26 185 3 33 8 67 10 75 2 8 7 44 10 80 3 36 8 81 10
100 2 19 9 89 15 155 6 66 12 143 15 170 27 306 27 1117 -1 1435 -2 30 -7 81
-10 114 -3 32 -7 84 -9 115 -3 31 -7 72 -9 91 -3 19 -7 60 -10 90 -9 79 -20
171 -31 240 -2 14 -7 45 -10 70 -6 46 -60 372 -70 423 -54 280 -161 715 -236
962 -81 266 -245 735 -308 879 -10 23 -51 118 -91 211 -40 94 -119 265 -175
380 -99 206 -171 343 -318 605 -148 264 -518 823 -696 1050 -144 185 -194 248
-209 265 -9 11 -37 45 -62 75 -25 31 -57 69 -71 85 -200 229 -225 257 -349
388 -174 184 -465 467 -610 593 -25 21 -47 41 -50 45 -16 17 -272 232 -385
321 -276 221 -745 548 -993 693 -9 6 -71 42 -137 81 -66 40 -140 83 -165 97
-135 74 -295 159 -370 196 -47 24 -92 47 -100 51 -61 35 -443 207 -575 260
-11 4 -36 15 -55 23 -19 9 -55 23 -80 32 -25 10 -58 23 -75 30 -105 45 -543
195 -755 259 -286 85 -825 214 -1015 243 -16 2 -77 12 -135 22 -121 22 -226
38 -290 46 -25 3 -54 7 -65 9 -11 2 -47 7 -80 10 -33 4 -73 9 -90 11 -16 2
-57 7 -90 10 -33 3 -82 8 -110 10 -27 3 -72 7 -99 10 -28 2 -88 7 -135 10 -47
4 -117 9 -156 11 -80 6 -911 14 -917 9z"/>
</g>
</svg>
